<mxfile host="app.diagrams.net" modified="2021-10-20T07:06:36.091Z" agent="5.0 (Windows NT 10.0; Win64; x64) AppleWebKit/537.36 (KHTML, like Gecko) Chrome/94.0.4606.81 Safari/537.36" etag="43XayfZS7117ehC9T4TV" version="15.5.6" type="github">
  <diagram id="VK4mWWk5hp6Uc4UK5gkL" name="Page-1">
    <mxGraphModel dx="782" dy="436" grid="1" gridSize="10" guides="1" tooltips="1" connect="1" arrows="1" fold="1" page="1" pageScale="1" pageWidth="850" pageHeight="1100" math="0" shadow="0">
      <root>
        <mxCell id="0" />
        <mxCell id="1" parent="0" />
        <mxCell id="yNRkKgqbXKiSQPJKnxCS-2" style="edgeStyle=orthogonalEdgeStyle;rounded=0;orthogonalLoop=1;jettySize=auto;html=1;exitX=0.25;exitY=1;exitDx=0;exitDy=0;entryX=0.5;entryY=0;entryDx=0;entryDy=0;" edge="1" parent="1" source="_Ouy83M2x98ljYI_Id39-1" target="yNRkKgqbXKiSQPJKnxCS-1">
          <mxGeometry relative="1" as="geometry" />
        </mxCell>
        <mxCell id="yNRkKgqbXKiSQPJKnxCS-4" style="edgeStyle=orthogonalEdgeStyle;rounded=0;orthogonalLoop=1;jettySize=auto;html=1;exitX=0.75;exitY=1;exitDx=0;exitDy=0;" edge="1" parent="1" source="_Ouy83M2x98ljYI_Id39-1" target="yNRkKgqbXKiSQPJKnxCS-3">
          <mxGeometry relative="1" as="geometry" />
        </mxCell>
        <mxCell id="_Ouy83M2x98ljYI_Id39-1" value="Home Page" style="rounded=0;whiteSpace=wrap;html=1;" parent="1" vertex="1">
          <mxGeometry x="200" y="240" width="280" height="90" as="geometry" />
        </mxCell>
        <mxCell id="yNRkKgqbXKiSQPJKnxCS-6" style="edgeStyle=orthogonalEdgeStyle;rounded=0;orthogonalLoop=1;jettySize=auto;html=1;exitX=0.25;exitY=1;exitDx=0;exitDy=0;entryX=0.5;entryY=0;entryDx=0;entryDy=0;" edge="1" parent="1" source="yNRkKgqbXKiSQPJKnxCS-1" target="yNRkKgqbXKiSQPJKnxCS-5">
          <mxGeometry relative="1" as="geometry" />
        </mxCell>
        <mxCell id="yNRkKgqbXKiSQPJKnxCS-21" style="edgeStyle=orthogonalEdgeStyle;rounded=0;orthogonalLoop=1;jettySize=auto;html=1;exitX=0.75;exitY=1;exitDx=0;exitDy=0;entryX=0.5;entryY=0;entryDx=0;entryDy=0;" edge="1" parent="1" source="yNRkKgqbXKiSQPJKnxCS-1" target="yNRkKgqbXKiSQPJKnxCS-19">
          <mxGeometry relative="1" as="geometry" />
        </mxCell>
        <mxCell id="yNRkKgqbXKiSQPJKnxCS-1" value="Quarantining Students" style="rounded=0;whiteSpace=wrap;html=1;" vertex="1" parent="1">
          <mxGeometry x="90" y="390" width="120" height="60" as="geometry" />
        </mxCell>
        <mxCell id="yNRkKgqbXKiSQPJKnxCS-10" style="edgeStyle=orthogonalEdgeStyle;rounded=0;orthogonalLoop=1;jettySize=auto;html=1;exitX=0.25;exitY=1;exitDx=0;exitDy=0;entryX=0.5;entryY=0;entryDx=0;entryDy=0;" edge="1" parent="1" source="yNRkKgqbXKiSQPJKnxCS-3" target="yNRkKgqbXKiSQPJKnxCS-7">
          <mxGeometry relative="1" as="geometry" />
        </mxCell>
        <mxCell id="yNRkKgqbXKiSQPJKnxCS-25" style="edgeStyle=orthogonalEdgeStyle;rounded=0;orthogonalLoop=1;jettySize=auto;html=1;exitX=0.75;exitY=1;exitDx=0;exitDy=0;entryX=0.5;entryY=0;entryDx=0;entryDy=0;" edge="1" parent="1" source="yNRkKgqbXKiSQPJKnxCS-3" target="yNRkKgqbXKiSQPJKnxCS-24">
          <mxGeometry relative="1" as="geometry" />
        </mxCell>
        <mxCell id="yNRkKgqbXKiSQPJKnxCS-3" value="Helpers" style="rounded=0;whiteSpace=wrap;html=1;" vertex="1" parent="1">
          <mxGeometry x="450" y="380" width="120" height="60" as="geometry" />
        </mxCell>
        <mxCell id="yNRkKgqbXKiSQPJKnxCS-13" style="edgeStyle=orthogonalEdgeStyle;rounded=0;orthogonalLoop=1;jettySize=auto;html=1;exitX=0.5;exitY=1;exitDx=0;exitDy=0;entryX=0.5;entryY=0;entryDx=0;entryDy=0;" edge="1" parent="1" source="yNRkKgqbXKiSQPJKnxCS-5" target="yNRkKgqbXKiSQPJKnxCS-12">
          <mxGeometry relative="1" as="geometry" />
        </mxCell>
        <mxCell id="yNRkKgqbXKiSQPJKnxCS-5" value="Food Requests" style="rounded=0;whiteSpace=wrap;html=1;" vertex="1" parent="1">
          <mxGeometry x="10" y="480" width="120" height="60" as="geometry" />
        </mxCell>
        <mxCell id="yNRkKgqbXKiSQPJKnxCS-11" style="edgeStyle=orthogonalEdgeStyle;rounded=0;orthogonalLoop=1;jettySize=auto;html=1;exitX=0;exitY=0.5;exitDx=0;exitDy=0;entryX=1;entryY=0.5;entryDx=0;entryDy=0;startArrow=none;" edge="1" parent="1" source="yNRkKgqbXKiSQPJKnxCS-19" target="yNRkKgqbXKiSQPJKnxCS-5">
          <mxGeometry relative="1" as="geometry" />
        </mxCell>
        <mxCell id="yNRkKgqbXKiSQPJKnxCS-16" style="edgeStyle=orthogonalEdgeStyle;rounded=0;orthogonalLoop=1;jettySize=auto;html=1;exitX=0.25;exitY=1;exitDx=0;exitDy=0;entryX=0.5;entryY=0;entryDx=0;entryDy=0;" edge="1" parent="1" source="yNRkKgqbXKiSQPJKnxCS-7" target="yNRkKgqbXKiSQPJKnxCS-15">
          <mxGeometry relative="1" as="geometry" />
        </mxCell>
        <mxCell id="yNRkKgqbXKiSQPJKnxCS-18" style="edgeStyle=orthogonalEdgeStyle;rounded=0;orthogonalLoop=1;jettySize=auto;html=1;exitX=0.75;exitY=1;exitDx=0;exitDy=0;entryX=0.5;entryY=0;entryDx=0;entryDy=0;" edge="1" parent="1" source="yNRkKgqbXKiSQPJKnxCS-7" target="yNRkKgqbXKiSQPJKnxCS-14">
          <mxGeometry relative="1" as="geometry" />
        </mxCell>
        <mxCell id="yNRkKgqbXKiSQPJKnxCS-7" value="View requests" style="rounded=0;whiteSpace=wrap;html=1;" vertex="1" parent="1">
          <mxGeometry x="365" y="480" width="120" height="60" as="geometry" />
        </mxCell>
        <mxCell id="yNRkKgqbXKiSQPJKnxCS-28" style="edgeStyle=orthogonalEdgeStyle;rounded=0;orthogonalLoop=1;jettySize=auto;html=1;exitX=0.5;exitY=1;exitDx=0;exitDy=0;entryX=0;entryY=0.5;entryDx=0;entryDy=0;" edge="1" parent="1" source="yNRkKgqbXKiSQPJKnxCS-12" target="yNRkKgqbXKiSQPJKnxCS-24">
          <mxGeometry relative="1" as="geometry" />
        </mxCell>
        <mxCell id="yNRkKgqbXKiSQPJKnxCS-12" value="Allergy Specifications/Notes" style="rounded=0;whiteSpace=wrap;html=1;" vertex="1" parent="1">
          <mxGeometry x="10" y="570" width="120" height="60" as="geometry" />
        </mxCell>
        <mxCell id="yNRkKgqbXKiSQPJKnxCS-14" value="Mark as Delivering or Completed" style="rounded=0;whiteSpace=wrap;html=1;" vertex="1" parent="1">
          <mxGeometry x="450" y="580" width="120" height="60" as="geometry" />
        </mxCell>
        <mxCell id="yNRkKgqbXKiSQPJKnxCS-17" style="edgeStyle=orthogonalEdgeStyle;rounded=0;orthogonalLoop=1;jettySize=auto;html=1;exitX=1;exitY=0.5;exitDx=0;exitDy=0;entryX=0;entryY=0.5;entryDx=0;entryDy=0;" edge="1" parent="1" source="yNRkKgqbXKiSQPJKnxCS-15" target="yNRkKgqbXKiSQPJKnxCS-14">
          <mxGeometry relative="1" as="geometry" />
        </mxCell>
        <mxCell id="yNRkKgqbXKiSQPJKnxCS-22" style="edgeStyle=orthogonalEdgeStyle;rounded=0;orthogonalLoop=1;jettySize=auto;html=1;exitX=0;exitY=0.5;exitDx=0;exitDy=0;entryX=0.5;entryY=1;entryDx=0;entryDy=0;" edge="1" parent="1" source="yNRkKgqbXKiSQPJKnxCS-15" target="yNRkKgqbXKiSQPJKnxCS-19">
          <mxGeometry relative="1" as="geometry" />
        </mxCell>
        <mxCell id="yNRkKgqbXKiSQPJKnxCS-15" value="Ask for further clarification through contact" style="rounded=0;whiteSpace=wrap;html=1;" vertex="1" parent="1">
          <mxGeometry x="280" y="580" width="120" height="60" as="geometry" />
        </mxCell>
        <mxCell id="yNRkKgqbXKiSQPJKnxCS-19" value="Contact Specifications" style="rounded=0;whiteSpace=wrap;html=1;" vertex="1" parent="1">
          <mxGeometry x="170" y="480" width="120" height="60" as="geometry" />
        </mxCell>
        <mxCell id="yNRkKgqbXKiSQPJKnxCS-20" value="" style="edgeStyle=orthogonalEdgeStyle;rounded=0;orthogonalLoop=1;jettySize=auto;html=1;exitX=0;exitY=0.5;exitDx=0;exitDy=0;entryX=1;entryY=0.5;entryDx=0;entryDy=0;endArrow=none;" edge="1" parent="1" source="yNRkKgqbXKiSQPJKnxCS-7" target="yNRkKgqbXKiSQPJKnxCS-19">
          <mxGeometry relative="1" as="geometry">
            <mxPoint x="365" y="510" as="sourcePoint" />
            <mxPoint x="130" y="510" as="targetPoint" />
          </mxGeometry>
        </mxCell>
        <mxCell id="yNRkKgqbXKiSQPJKnxCS-24" value="Venmo/etc. Specification for Tips?" style="rounded=0;whiteSpace=wrap;html=1;" vertex="1" parent="1">
          <mxGeometry x="480" y="680" width="120" height="60" as="geometry" />
        </mxCell>
      </root>
    </mxGraphModel>
  </diagram>
</mxfile>
